<?xml version="1.0" standalone="no"?>
<!DOCTYPE svg PUBLIC "-//W3C//DTD SVG 20010904//EN"
 "http://www.w3.org/TR/2001/REC-SVG-20010904/DTD/svg10.dtd">
<svg version="1.0" xmlns="http://www.w3.org/2000/svg"
 width="512.000000pt" height="512.000000pt" viewBox="0 0 512.000000 512.000000"
 preserveAspectRatio="xMidYMid meet">
<metadata>
Created by potrace 1.14, written by Peter Selinger 2001-2017
</metadata>
<g transform="translate(0.000000,512.000000) scale(0.100000,-0.100000)"
fill="#000000" stroke="none">
<path d="M2257 4362 l-757 -757 48 -48 c26 -26 52 -47 57 -47 6 0 157 147 337
327 l328 328 0 -100 0 -100 -135 -135 -135 -135 52 -52 52 -53 83 82 83 83 0
-290 0 -290 -1137 -1137 -1138 -1138 155 -155 155 -155 110 0 110 0 605 605
604 605 34 -32 33 -32 -606 -606 -605 -605 0 -110 0 -110 155 -155 155 -155
1138 1138 1137 1137 290 0 290 0 -83 -83 -82 -83 53 -52 52 -52 135 135 135
135 100 0 100 0 -328 -328 c-180 -180 -327 -332 -327 -337 0 -6 21 -32 48 -58
l47 -47 758 758 757 757 -138 138 -137 137 -140 0 -140 0 -215 -215 -215 -215
-240 0 -240 0 -72 72 -73 72 32 33 32 33 106 0 105 0 162 163 c217 218 263
300 263 473 0 285 -219 504 -504 504 -173 0 -255 -46 -473 -263 l-163 -162 0
-105 0 -106 -33 -32 -33 -32 -72 73 -72 72 0 240 0 240 215 215 215 215 0 140
0 140 -138 138 -137 137 -758 -758z m822 476 l61 -58 0 -78 0 -77 -90 -90 -90
-90 -102 103 -103 102 125 125 c69 69 128 124 131 123 4 -2 35 -29 68 -60z
m-281 -451 l52 -53 -70 -69 -70 -69 0 -306 0 -305 142 -142 c79 -79 147 -143
152 -143 6 0 22 11 36 25 l26 25 142 -143 143 -143 -26 -24 c-14 -13 -25 -28
-25 -34 0 -6 64 -75 142 -153 l143 -143 305 0 306 0 69 70 70 70 102 -102 103
-103 -112 -112 -113 -113 -495 0 -494 0 62 63 62 63 -55 54 -55 55 -965 -965
-965 -965 -100 100 -100 100 400 400 c220 220 400 405 400 410 0 13 -262 275
-275 275 -5 0 -169 -159 -362 -352 l-353 -353 -52 53 -53 52 390 390 390 390
252 -252 253 -253 55 55 55 55 -257 257 -257 258 -28 -27 -28 -27 -43 42 -42
42 120 120 119 120 43 -42 43 -42 -27 -28 -27 -29 257 -257 257 -257 55 55 55
55 -252 252 -253 253 303 303 302 302 0 605 0 604 42 43 c23 24 45 43 48 43 3
0 29 -24 58 -53z m1064 -360 c66 -32 141 -109 171 -175 17 -38 22 -66 22 -142
0 -138 -19 -174 -186 -345 l-132 -135 -166 0 -166 0 -87 87 -88 88 0 166 0
166 135 131 c176 172 219 194 361 189 64 -3 93 -9 136 -30z m974 -943 c35 -31
64 -62 64 -68 0 -6 -56 -67 -125 -136 l-125 -125 -103 103 -102 102 91 90 91
90 73 0 72 0 64 -56z m-4193 -2166 c-178 -177 -178 -177 -223 -178 -44 0 -49
3 -125 80 l-80 80 200 200 200 200 103 -103 102 -102 -177 -177z m560 -206
l97 -97 -200 -200 -200 -200 -80 80 c-75 74 -80 82 -80 121 0 41 4 46 178 218
97 96 179 176 182 176 3 0 49 -44 103 -98z"/>
<path d="M2789 3149 c-91 -14 -190 -85 -232 -166 -44 -83 -42 -204 2 -291 81
-158 295 -217 446 -121 25 16 53 29 63 29 28 1 105 39 135 68 132 125 75 349
-100 397 -32 9 -65 20 -73 25 -81 51 -160 71 -241 59z m138 -175 c70 -53 91
-131 54 -206 -54 -113 -229 -118 -286 -8 -37 72 -6 177 64 219 45 27 128 25
168 -5z"/>
<path d="M1205 2889 c-495 -303 -915 -558 -933 -569 l-32 -20 156 -312 c86
-172 157 -314 159 -316 1 -1 32 11 68 27 l66 30 -24 54 c-13 30 -69 146 -125
257 -78 156 -98 205 -88 211 7 5 399 244 870 531 472 288 858 528 858 533 0 6
-17 35 -38 66 l-37 57 -900 -549z"/>
<path d="M2826 1300 c-296 -484 -542 -883 -547 -886 -5 -2 -130 57 -279 132
-149 75 -273 134 -274 133 -2 -2 -18 -32 -35 -66 l-31 -62 93 -49 c209 -112
580 -293 587 -285 11 13 1150 1882 1150 1887 0 5 -112 76 -121 76 -3 0 -248
-396 -543 -880z"/>
</g>
</svg>
